<svg width="46" height="52" viewBox="0 0 46 52" fill="none" xmlns="http://www.w3.org/2000/svg">
<path d="M23 52C26.5872 52 29.497 49.0902 29.497 45.5H16.5031C16.5031 49.0902 19.4128 52 23 52ZM44.8756 36.7951C42.9134 34.6866 39.2419 31.5148 39.2419 21.125C39.2419 13.2336 33.7088 6.91641 26.248 5.36656V3.25C26.248 1.45539 24.7936 0 23 0C21.2064 0 19.752 1.45539 19.752 3.25V5.36656C12.2913 6.91641 6.75813 13.2336 6.75813 21.125C6.75813 31.5148 3.08665 34.6866 1.12446 36.7951C0.515087 37.4502 0.244931 38.2332 0.250009 39C0.261181 40.6656 1.56829 42.25 3.51017 42.25H42.4899C44.4317 42.25 45.7399 40.6656 45.75 39C45.7551 38.2332 45.4849 37.4491 44.8756 36.7951Z" fill="#FFFEFE"/>
</svg>
